<mxfile host="app.diagrams.net" modified="2022-06-01T09:07:13.811Z" agent="5.0 (Windows NT 10.0; Win64; x64) AppleWebKit/537.36 (KHTML, like Gecko) Chrome/101.0.4951.64 Safari/537.36 Edg/101.0.1210.53" etag="mSqFTIxhNwXKTVym0pS8" version="18.1.3" type="github">
  <diagram id="1aKr8FkeWFeVxyVzwFZU" name="Page-1">
    <mxGraphModel dx="1038" dy="579" grid="1" gridSize="10" guides="1" tooltips="1" connect="1" arrows="1" fold="1" page="1" pageScale="1" pageWidth="827" pageHeight="1169" math="0" shadow="0">
      <root>
        <mxCell id="0" />
        <mxCell id="1" parent="0" />
        <mxCell id="svCLZ-7mLVRAdpEUhrlE-1" value="" style="endArrow=classic;html=1;rounded=0;" edge="1" parent="1">
          <mxGeometry width="50" height="50" relative="1" as="geometry">
            <mxPoint x="160" y="400" as="sourcePoint" />
            <mxPoint x="160" y="40" as="targetPoint" />
          </mxGeometry>
        </mxCell>
        <mxCell id="svCLZ-7mLVRAdpEUhrlE-2" value="" style="endArrow=none;html=1;rounded=0;" edge="1" parent="1">
          <mxGeometry width="50" height="50" relative="1" as="geometry">
            <mxPoint x="160" y="400" as="sourcePoint" />
            <mxPoint x="560" y="400" as="targetPoint" />
          </mxGeometry>
        </mxCell>
        <mxCell id="svCLZ-7mLVRAdpEUhrlE-3" value="" style="endArrow=none;dashed=1;html=1;rounded=0;" edge="1" parent="1">
          <mxGeometry width="50" height="50" relative="1" as="geometry">
            <mxPoint x="160" y="100" as="sourcePoint" />
            <mxPoint x="560" y="100" as="targetPoint" />
          </mxGeometry>
        </mxCell>
        <mxCell id="svCLZ-7mLVRAdpEUhrlE-4" value="" style="rounded=0;whiteSpace=wrap;html=1;" vertex="1" parent="1">
          <mxGeometry x="200" y="151" width="40" height="249" as="geometry" />
        </mxCell>
        <mxCell id="svCLZ-7mLVRAdpEUhrlE-5" value="" style="rounded=0;whiteSpace=wrap;html=1;" vertex="1" parent="1">
          <mxGeometry x="280" y="139" width="40" height="261" as="geometry" />
        </mxCell>
        <mxCell id="svCLZ-7mLVRAdpEUhrlE-6" value="&lt;font style=&quot;font-size: 18px;&quot;&gt;stress&lt;/font&gt;" style="text;html=1;strokeColor=none;fillColor=none;align=center;verticalAlign=middle;whiteSpace=wrap;rounded=0;" vertex="1" parent="1">
          <mxGeometry x="190" y="410" width="60" height="30" as="geometry" />
        </mxCell>
        <mxCell id="svCLZ-7mLVRAdpEUhrlE-7" value="" style="rounded=0;whiteSpace=wrap;html=1;fontSize=18;" vertex="1" parent="1">
          <mxGeometry x="200" y="118" width="40" height="33" as="geometry" />
        </mxCell>
        <mxCell id="svCLZ-7mLVRAdpEUhrlE-8" value="" style="rounded=0;whiteSpace=wrap;html=1;fontSize=18;" vertex="1" parent="1">
          <mxGeometry x="200" y="106" width="40" height="12" as="geometry" />
        </mxCell>
        <mxCell id="svCLZ-7mLVRAdpEUhrlE-9" value="" style="rounded=0;whiteSpace=wrap;html=1;fontSize=18;" vertex="1" parent="1">
          <mxGeometry x="200" y="100" width="40" height="6" as="geometry" />
        </mxCell>
        <mxCell id="svCLZ-7mLVRAdpEUhrlE-11" value="sysbench" style="text;html=1;strokeColor=none;fillColor=none;align=center;verticalAlign=middle;whiteSpace=wrap;rounded=0;fontSize=18;" vertex="1" parent="1">
          <mxGeometry x="270" y="410" width="60" height="30" as="geometry" />
        </mxCell>
        <mxCell id="svCLZ-7mLVRAdpEUhrlE-12" value="" style="rounded=0;whiteSpace=wrap;html=1;fontSize=18;" vertex="1" parent="1">
          <mxGeometry x="280" y="107.5" width="40" height="18" as="geometry" />
        </mxCell>
        <mxCell id="svCLZ-7mLVRAdpEUhrlE-13" value="" style="rounded=0;whiteSpace=wrap;html=1;fontSize=18;" vertex="1" parent="1">
          <mxGeometry x="280" y="125.5" width="40" height="18" as="geometry" />
        </mxCell>
        <mxCell id="svCLZ-7mLVRAdpEUhrlE-15" value="" style="rounded=0;whiteSpace=wrap;html=1;fontSize=18;" vertex="1" parent="1">
          <mxGeometry x="280" y="100" width="40" height="9" as="geometry" />
        </mxCell>
      </root>
    </mxGraphModel>
  </diagram>
</mxfile>
